<?xml version="1.0" encoding="UTF-8"?>
<svg version="1.1" xmlns="http://www.w3.org/2000/svg" width="512" height="512">
<path d="M0 0 C1.50046875 -0.01933594 1.50046875 -0.01933594 3.03125 -0.0390625 C11.62422626 1.60598926 18.07884949 6.46175592 24.08479309 12.57487488 C24.77992986 13.26221169 25.47506663 13.94954851 26.19126815 14.65771371 C28.4960064 16.94265594 30.78262946 19.24487277 33.06958008 21.54760742 C34.72691412 23.19815994 36.38530858 24.84764826 38.04467773 26.49615479 C42.53328217 30.96202383 47.00599679 35.44349368 51.47529817 39.92867064 C55.68636578 44.15113918 59.90747947 48.36353558 64.127907 52.5766435 C72.9955036 61.43000824 81.84775605 70.29858746 90.69477262 79.17251096 C98.2737901 86.77386488 105.86582062 94.36201455 113.4675293 101.94067383 C122.31134458 110.75768573 131.14693319 119.58281088 139.96969146 128.42089731 C144.63422068 133.0933113 149.30214588 137.76222295 153.97889137 142.42241478 C158.37582916 146.80487369 162.76028761 151.19945202 167.13555145 155.60354614 C168.74005306 157.21464007 170.34878965 158.82152948 171.96211052 160.42379189 C174.16992026 162.61786301 176.36163823 164.82688489 178.55012512 167.04020691 C179.18630998 167.66523816 179.82249484 168.29026941 180.47795802 168.934241 C185.78185305 174.35485869 189.72397006 180.5713848 191.1640625 188.09375 C191.14472656 189.59421875 191.14472656 189.59421875 191.125 191.125 C191.13789063 192.1253125 191.15078125 193.125625 191.1640625 194.15625 C189.51762243 202.75647811 184.65773746 209.20908574 178.53666687 215.21652222 C177.84791892 215.91236455 177.15917098 216.60820688 176.44955188 217.32513535 C174.15994077 219.63221836 171.85305077 221.92116482 169.5456543 224.21044922 C167.89184914 225.86939718 166.23911594 227.52941436 164.58737183 229.19041443 C160.1132699 233.68298976 155.62364432 238.15974309 151.13046622 242.63322973 C146.90203498 246.84690992 142.68397916 251.07094426 138.46533523 255.29441763 C130.10666877 263.66163633 121.73547808 272.01621332 113.35766602 280.36425781 C105.23856214 288.45451399 97.1304343 296.55557709 89.03344727 304.66796875 C80.20210157 313.51609332 71.3644072 322.35778907 62.51592571 331.18877995 C57.83707341 335.85849402 53.160782 340.53070886 48.49112511 345.20962143 C44.10159126 349.60682389 39.70226879 353.99399456 35.29523849 358.37365913 C33.68095344 359.98106613 32.07004103 361.59186851 30.46279716 363.20631599 C28.26575393 365.41206845 26.05673088 367.60509317 23.84428406 369.79537964 C23.21342713 370.43447734 22.58257019 371.07357504 21.93259639 371.73203933 C15.72450165 377.82611798 9.88196864 381.19963839 1 381.125 C-0.2271875 381.1353125 -1.454375 381.145625 -2.71875 381.15625 C-10.95853484 379.99859428 -16.28094739 375.43084698 -21.97163391 369.66130066 C-23.03226847 368.61002604 -23.03226847 368.61002604 -24.11432999 367.53751355 C-26.46901463 365.19871796 -28.80921946 362.8459648 -31.1496582 360.49291992 C-32.83970331 358.80829765 -34.53059759 357.12452692 -36.22227478 355.44154358 C-40.3301303 351.35001363 -44.42856024 347.24922263 -48.52244792 343.14371987 C-51.85059991 339.80651831 -55.18265508 336.47326097 -58.51750755 333.14275551 C-58.9929196 332.6679564 -59.46833164 332.19315728 -59.95815011 331.70397032 C-60.92407574 330.73932365 -61.8900103 329.77468594 -62.85595372 328.81005708 C-71.90278158 319.77462225 -80.93733153 310.72699077 -89.96769973 301.6751096 C-97.71120538 293.91372835 -105.46514645 286.16290229 -113.22680664 278.41967773 C-122.24880859 269.4190951 -131.26426918 260.41204221 -140.26942891 251.39460641 C-141.23013466 250.43262651 -142.19084875 249.47065494 -143.15157127 248.50869179 C-143.86053867 247.79879874 -143.86053867 247.79879874 -144.58382863 247.07456442 C-147.91008285 243.74486093 -151.24094684 240.41981244 -154.57363319 237.09654808 C-159.06016251 232.62157313 -163.53679404 228.13692667 -168.00597572 223.64462852 C-169.64765528 221.99766012 -171.29274801 220.35408585 -172.94147873 218.71417618 C-175.19146124 216.47512445 -177.42875993 214.22411395 -179.6632843 211.96965027 C-180.31833193 211.32352553 -180.97337955 210.67740079 -181.6482771 210.01169652 C-187.50474347 204.05344674 -189.92827238 198.80351875 -190 190.25 C-190.0309375 189.02539062 -190.061875 187.80078125 -190.09375 186.5390625 C-188.49902518 176.02646861 -180.6239131 169.19378438 -173.37573242 162.04663086 C-172.24114443 160.91317299 -171.10744013 159.77882997 -169.97454834 158.64367676 C-166.91564876 155.58363556 -163.84462718 152.53603382 -160.77118468 149.49060893 C-157.55423608 146.29876625 -154.34870781 143.09549494 -151.141922 139.89344788 C-145.07624683 133.84017554 -139.0004532 127.79716703 -132.92090636 121.7578302 C-125.99642917 114.87815465 -119.08338713 107.9870368 -112.17125547 101.09496105 C-97.9601406 86.92558947 -83.7348129 72.77056131 -69.5 58.625 C-66.29143269 60.16065749 -63.97288994 61.82437336 -61.3581543 64.25415039 C-60.15252083 65.37286278 -60.15252083 65.37286278 -58.92253113 66.51417542 C-55.27689507 69.96361685 -51.65607455 73.43753256 -48.0534668 76.93188477 C-46.15149882 78.76061912 -44.2318797 80.57118062 -42.29467773 82.36254883 C-25.25537028 98.13893093 -25.25537028 98.13893093 -24.54956055 105.51074219 C-24.60646258 108.4678439 -25.05287843 111.17396336 -25.74169922 114.04418945 C-26.92327842 119.62378449 -25.23586795 123.77130657 -22.5 128.625 C-19.82720864 132.71867183 -17.13422887 135.32954145 -12.8840332 137.72094727 C-11.76730225 138.34928467 -10.65057129 138.97762207 -9.5 139.625 C-9.26820815 153.32442368 -9.09057069 167.02338034 -8.98187828 180.72436619 C-8.92970784 187.08656172 -8.85895977 193.44741496 -8.74560547 199.80883789 C-8.63687588 205.94921467 -8.57714272 212.08830139 -8.55122757 218.22956657 C-8.53276263 220.57129162 -8.49670238 222.91294669 -8.44269943 225.25412178 C-8.03439219 243.69012532 -8.03439219 243.69012532 -11.68731689 248.51266479 C-14.37353516 250.36694336 -14.37353516 250.36694336 -17.05386353 251.54234314 C-21.11268135 253.33877069 -22.72254989 256.71305739 -24.5 260.625 C-27.6549056 269.03808161 -27.06945439 275.7503877 -23.8203125 283.94140625 C-20.37046664 290.95337106 -15.84406844 295.06953417 -8.61328125 297.93359375 C0.65382753 300.96553137 7.72590063 299.58303221 16.5 295.625 C22.52547116 292.14361666 26.33649039 285.11552882 28.5 278.625 C29.21919282 268.51480867 28.6759576 261.19077581 22.125 253.3125 C20.07175555 251.00142805 18.83204191 249.7517447 15.91584778 248.63859558 C13.5 246.625 13.5 246.625 13.04627037 244.67768288 C12.88092371 241.9884693 12.88250044 239.33975265 12.93237305 236.64575195 C12.93127785 235.10890747 12.93127785 235.10890747 12.93016052 233.54101562 C12.93364937 230.14790256 12.97257364 226.75615507 13.01171875 223.36328125 C13.02104221 221.01345062 13.02816052 218.66361029 13.03315735 216.31376648 C13.05226363 210.12390386 13.10139667 203.9346263 13.15667725 197.74499512 C13.20779092 191.43098872 13.23065459 185.11688795 13.25585938 178.80273438 C13.30951111 166.40989896 13.39486852 154.01749809 13.5 141.625 C20.93834288 147.96977316 28.12908137 154.52632375 35.18212891 161.29785156 C36.72605296 162.76469325 38.28577813 164.21508248 39.86083984 165.6484375 C53.7340317 178.30203993 53.7340317 178.30203993 54.21850586 185.04956055 C54.13370402 187.8902225 53.69930539 190.31852772 53.12866211 193.13500977 C51.99212826 199.44442777 54.51533401 204.37905095 57.75390625 209.67578125 C62.21883114 215.61629385 69.28394087 219.16389712 76.5 220.625 C84.4395584 221.26016467 92.54775632 219.20618172 98.8984375 214.28515625 C105.946009 206.97974677 107.93755925 199.13074686 107.8359375 189.2734375 C107.06759887 180.92892265 103.00270628 175.4149612 96.7578125 170.09765625 C91.32312353 166.55288507 88.04016107 165.29070664 81.58480835 166.35365295 C74.64985519 167.30789026 69.83541464 166.3131383 64.19824219 162.06689453 C59.39756652 157.99641259 54.97602362 153.58539511 50.625 149.04174805 C47.87663054 146.18919235 45.04681645 143.44239201 42.1953125 140.69335938 C27.60730356 126.1582421 27.60730356 126.1582421 27.23403931 117.29100037 C27.40682869 114.00878721 27.94416327 110.86396994 28.5 107.625 C27.37945693 99.85759914 21.64454873 93.81904272 15.609375 89.16796875 C11.03089295 86.61735769 7.90927409 86.71339927 2.80062866 87.59570312 C-2.8375672 88.31923846 -7.35710888 88.00835895 -12.222229 84.86764526 C-18.92802442 79.38506188 -24.80892232 73.04844404 -30.66912842 66.6918335 C-33.1098184 64.06512187 -35.6039851 61.49024165 -38.09375 58.91015625 C-42.94854573 53.86380839 -47.74282583 48.7634359 -52.5 43.625 C-51.14503493 40.61013041 -49.6216793 38.48346837 -47.31054688 36.12915039 C-46.66226929 35.46488541 -46.0139917 34.80062042 -45.34606934 34.1162262 C-44.64405396 33.40884811 -43.94203857 32.70147003 -43.21875 31.97265625 C-42.12657166 30.8669352 -42.12657166 30.8669352 -41.0123291 29.73887634 C-39.46832355 28.18036868 -37.92149515 26.62465327 -36.37207031 25.0715332 C-34.02416567 22.71178754 -31.69558082 20.33405651 -29.3671875 17.95507812 C-27.86053305 16.43895247 -26.35275484 14.92394257 -24.84375 13.41015625 C-24.15792847 12.7048024 -23.47210693 11.99944855 -22.76550293 11.27272034 C-16.51208594 5.07573521 -9.12374831 -0.11757408 0 0 Z " fill="#F05033" transform="translate(214.5,18.375)"/>
<path d="M0 0 C0.82540283 0.00265869 1.65080566 0.00531738 2.5012207 0.00805664 C10.86835845 0.06668226 19.23324464 0.27332634 27.59729004 0.49932861 C29.15918453 0.54149023 30.72111612 0.58229941 32.28308105 0.62176514 C34.494894 0.67882867 36.70640526 0.74263654 38.91796875 0.80859375 C40.85579224 0.86358032 40.85579224 0.86358032 42.83276367 0.91967773 C45.75 1.125 45.75 1.125 46.75 2.125 C46.84909302 4.45660055 46.87970504 6.79129942 46.875 9.125 C46.87886719 11.043125 46.87886719 11.043125 46.8828125 13 C46.75 16.125 46.75 16.125 45.75 17.125 C43.73035801 17.19744053 41.70832876 17.20877188 39.6875 17.1875 C38.58277344 17.17847656 37.47804688 17.16945313 36.33984375 17.16015625 C35.48519531 17.14855469 34.63054687 17.13695312 33.75 17.125 C34.03875 17.71925781 34.3275 18.31351562 34.625 18.92578125 C38.16008717 26.81835434 38.61517325 33.4058732 37.0625 41.875 C33.67670527 50.25887266 28.38716773 54.96622813 20.29296875 58.734375 C13.80516124 61.09793502 6.8805926 60.59602816 0.06640625 60.65234375 C-0.97386719 60.67425781 -2.01414062 60.69617188 -3.0859375 60.71875 C-4.03001465 60.72583984 -4.9740918 60.73292969 -5.94677734 60.74023438 C-6.70684082 60.86720703 -7.4669043 60.99417969 -8.25 61.125 C-8.91 62.115 -9.57 63.105 -10.25 64.125 C-6.57746208 64.94205642 -3.03153271 65.33767556 0.72265625 65.5546875 C1.87056641 65.62816406 3.01847656 65.70164062 4.20117188 65.77734375 C6.58101173 65.92407265 8.96122759 66.0648424 11.34179688 66.19921875 C22.50206213 66.93287407 33.4757019 67.91307098 41.75 76.125 C45.82886338 81.51962576 46.38174866 87.49759899 45.75 94.125 C44.40492222 101.18357332 41.2112345 106.45849739 35.75 111.125 C24.64006229 118.05113205 13.78500035 119.30454913 1 119.3125 C-0.0209375 119.32474609 -1.041875 119.33699219 -2.09375 119.34960938 C-12.44561714 119.36931471 -25.07170755 118.82203599 -33.10546875 111.4140625 C-37.13763485 106.87428404 -38.56043536 103.49215917 -38.46875 97.24609375 C-37.88449475 91.58090449 -34.91553565 87.29612677 -31.25 83.125 C-32.075 82.50625 -32.9 81.8875 -33.75 81.25 C-36.2106517 78.75399411 -36.76408228 76.79228639 -37 73.3125 C-36.69845125 67.16273315 -33.49226821 64.22702794 -29.25 60.125 C-28.25471854 58.97205018 -27.27338065 57.80677276 -26.3125 56.625 C-25.631875 55.8 -24.95125 54.975 -24.25 54.125 C-25.1575 53.444375 -26.065 52.76375 -27 52.0625 C-31.39863714 48.40216839 -34.19636555 43.80071012 -35.25 38.125 C-35.97098569 28.07847806 -35.88789771 19.14484466 -29.51953125 10.87890625 C-21.26511378 1.89954992 -11.84897562 -0.07061073 0 0 Z M-9.25 21.125 C-11.97968071 25.10578437 -12.06425259 30.44510382 -11.25 35.125 C-9.64652535 38.19779405 -7.61880858 40.46419586 -4.4375 42 C-3.715625 42.04125 -2.99375 42.0825 -2.25 42.125 C-0.97125 42.2075 0.3075 42.29 1.625 42.375 C6.51382913 42.30216828 10.01799998 40.79727588 13.5625 37.375 C15.24161119 34.19352616 15.62801023 31.7236982 15.75 28.125 C14.30336018 23.55666373 12.99699322 20.51393368 8.75 18.125 C2.01062306 15.87854102 -3.5707259 17.08167605 -9.25 21.125 Z M-16.12646484 89.93505859 C-17.64769019 92.90015885 -17.73922228 94.84022184 -17.25 98.125 C-13.72100657 101.78002891 -9.65479877 102.2396797 -4.765625 102.328125 C-3.01047527 102.34933527 -1.25524804 102.36476532 0.5 102.375 C1.36882812 102.395625 2.23765625 102.41625 3.1328125 102.4375 C9.03805254 102.47296691 13.34388515 101.51374842 18.75 99.125 C19.08 96.815 19.41 94.505 19.75 92.125 C14.05786198 89.52016858 8.32355761 89.34148271 2.14746094 88.89990234 C0.12206369 88.74978236 -1.89912233 88.56868801 -3.921875 88.38671875 C-5.83613281 88.24556641 -5.83613281 88.24556641 -7.7890625 88.1015625 C-8.95646973 88.00955566 -10.12387695 87.91754883 -11.32666016 87.82275391 C-14.3296902 87.82962704 -14.3296902 87.82962704 -16.12646484 89.93505859 Z " fill="#000000" transform="translate(300.25,376.875)"/>
<path d="M0 0 C5.61 0 11.22 0 17 0 C17 7.59 17 15.18 17 23 C24.59 23 32.18 23 40 23 C40.020625 25.784375 40.04125 28.56875 40.0625 31.4375 C40.071604 32.31591553 40.08070801 33.19433105 40.09008789 34.09936523 C40.09723091 36.06645974 40.05031893 38.03353621 40 40 C39 41 39 41 36.86694336 41.11352539 C35.49227905 41.10567017 35.49227905 41.10567017 34.08984375 41.09765625 C33.10048828 41.09443359 32.11113281 41.09121094 31.09179688 41.08789062 C30.05087891 41.07951172 29.00996094 41.07113281 27.9375 41.0625 C26.89271484 41.05798828 25.84792969 41.05347656 24.77148438 41.04882812 C22.1809334 41.03699913 19.59049441 41.02051689 17 41 C17.09359027 46.76607392 17.19969716 52.53173072 17.31738281 58.29736328 C17.35565327 60.2585622 17.39050954 62.21983084 17.421875 64.18115234 C17.4675674 67.00122997 17.525555 69.82082838 17.5859375 72.640625 C17.59748871 73.51680481 17.60903992 74.39298462 17.62094116 75.29571533 C17.64081085 76.11626404 17.66068054 76.93681274 17.68115234 77.78222656 C17.69447601 78.50170471 17.70779968 79.22118286 17.7215271 79.96246338 C18.04669514 82.34166003 18.74607346 83.95879833 20 86 C25.6095468 88.8047734 33.99271777 86.88996774 40 86 C42.10575375 91.52760359 43.37851209 96.06997733 43 102 C30.03904197 107.57402371 16.91473767 110.7580875 3.0859375 105.90234375 C-2.38791009 103.53444339 -4.68662993 100.28534895 -7.203125 95.09765625 C-8.70424558 91.14617708 -9.12485832 87.32243519 -9.11352539 83.11791992 C-9.11344986 82.17732224 -9.11337433 81.23672455 -9.11329651 80.2676239 C-9.10813522 79.2653627 -9.10297394 78.2631015 -9.09765625 77.23046875 C-9.0962413 76.19432938 -9.09482635 75.15819 -9.09336853 74.09065247 C-9.08778242 70.78957196 -9.07523242 67.48855992 -9.0625 64.1875 C-9.05748321 61.94596452 -9.05292061 59.70442798 -9.04882812 57.46289062 C-9.03781753 51.97523716 -9.02109318 46.48762347 -9 41 C-9.78246094 41.01160156 -10.56492187 41.02320313 -11.37109375 41.03515625 C-12.38300781 41.04417969 -13.39492188 41.05320312 -14.4375 41.0625 C-15.44683594 41.07410156 -16.45617187 41.08570313 -17.49609375 41.09765625 C-20 41 -20 41 -21 40 C-21.07271741 37.64686445 -21.08370868 35.29166332 -21.0625 32.9375 C-21.05347656 31.64714844 -21.04445313 30.35679687 -21.03515625 29.02734375 C-21.02355469 28.02832031 -21.01195312 27.02929688 -21 26 C-19.96875 25.566875 -18.9375 25.13375 -17.875 24.6875 C-17.235625 24.40648437 -16.59625 24.12546875 -15.9375 23.8359375 C-14.26888297 23.11600999 -12.57378197 22.45803715 -10.875 21.8125 C-4.79885913 17.98188945 -2.89370704 12.25307177 -1.1875 5.5 C-0.795625 3.685 -0.40375 1.87 0 0 Z " fill="#000000" transform="translate(415,352)"/>
<path d="M0 0 C11.22 0 22.44 0 34 0 C34 22.11 34 44.22 34 67 C37.3 67.33 40.6 67.66 44 68 C44.02685412 70.31243792 44.04632841 72.6249627 44.0625 74.9375 C44.07410156 76.22527344 44.08570313 77.51304687 44.09765625 78.83984375 C44 82 44 82 43 83 C41.62390118 83.09795311 40.24286118 83.12798088 38.86328125 83.12939453 C37.54686646 83.13412277 37.54686646 83.13412277 36.20385742 83.13894653 C35.24970947 83.1369223 34.29556152 83.13489807 33.3125 83.1328125 C31.85324097 83.13424759 31.85324097 83.13424759 30.36450195 83.13571167 C28.303222 83.13639358 26.24193992 83.13453853 24.18066406 83.13037109 C21.01362312 83.125023 17.846724 83.13031572 14.6796875 83.13671875 C12.68229135 83.13605797 10.68489529 83.13477681 8.6875 83.1328125 C7.73335205 83.13483673 6.7792041 83.13686096 5.79614258 83.13894653 C4.91853271 83.13579437 4.04092285 83.13264221 3.13671875 83.12939453 C2.36030029 83.12859894 1.58388184 83.12780334 0.78393555 83.12698364 C-1 83 -1 83 -2 82 C-2.07271741 79.64686445 -2.08370868 77.29166332 -2.0625 74.9375 C-2.05347656 73.64714844 -2.04445313 72.35679687 -2.03515625 71.02734375 C-2.02355469 70.02832031 -2.01195312 69.02929688 -2 68 C1 67 1 67 8 67 C7.67 50.83 7.34 34.66 7 18 C4.03 17.01 1.06 16.02 -2 15 C-2.20818303 9.06678378 -1.73620116 6.07670404 0 0 Z " fill="#000000" transform="translate(354,377)"/>
<path d="M0 0 C0.75539063 -0.02835937 1.51078125 -0.05671875 2.2890625 -0.0859375 C6.46752313 -0.1005475 8.14493834 0.12418766 11.5390625 2.78125 C15.58788594 8.05836819 16.37918357 11.91803433 15.625 18.5 C14.22432256 22.101742 12.76592113 25.17339175 9.625 27.5 C4.59858633 29.67049681 -0.19376866 30.58584465 -5.4921875 28.77734375 C-9.97235983 26.75059912 -12.21612478 25.07289025 -14.375 20.5 C-14.7734375 17.5625 -14.7734375 17.5625 -14.75 14.5 C-14.75773437 13.489375 -14.76546875 12.47875 -14.7734375 11.4375 C-14.31662394 8.06961967 -13.34940762 6.24377773 -11.375 3.5 C-10.99085938 2.9121875 -10.60671875 2.324375 -10.2109375 1.71875 C-7.0973222 -0.34816058 -3.61161143 -0.01220139 0 0 Z " fill="#000000" transform="translate(372.375,337.5)"/>
</svg>
