<?xml version="1.0" encoding="UTF-8"?>
<svg version="1.1" xmlns="http://www.w3.org/2000/svg" width="849" height="829">
<path d="M0 0 C1.99157277 0.9911235 4.00180886 1.9346397 6.01757812 2.87548828 C14.30281428 6.80134426 21.66048943 11.22672159 28.87695312 16.93408203 C29.63492187 17.48966797 30.39289063 18.04525391 31.17382812 18.61767578 C48.00131042 31.29475556 65.45765723 48.06768887 68.99487305 69.61254883 C75.39999039 115.50311859 63.91602105 164.73088467 47.77148438 207.53417969 C46.77672695 210.20297484 45.82473186 212.88497377 44.87695312 215.57080078 C41.66483705 224.6330946 38.35147974 233.48312322 34.16601562 242.14501953 C32.93275449 244.81334817 31.94566378 247.46468715 31.00195312 250.24658203 C28.60365961 257.08469165 25.24624964 263.4163724 21.94140625 269.84912109 C20.56049147 272.55394042 19.21428943 275.27530204 17.86767578 277.99731445 C11.9755815 289.88749683 5.88352877 301.65455685 -1.12304688 312.93408203 C12.0158884 317.31372712 28.97927821 312.73107527 42.22216797 310.54736328 C52.03940873 308.94735734 59.12479422 308.30772098 67.75195312 313.74658203 C72.22408006 318.35024211 73.85418378 323.58143596 73.87695312 329.93408203 C72.88927537 342.25858267 66.95461995 353.80051105 58.87695312 362.93408203 C58.27496094 363.65466797 57.67296875 364.37525391 57.05273438 365.11767578 C53.94864661 368.7873674 50.90570775 372.24824562 46.87695312 374.93408203 C45.88695312 374.93408203 44.89695312 374.93408203 43.87695312 374.93408203 C43.87695312 375.59408203 43.87695312 376.25408203 43.87695312 376.93408203 C33.76166113 382.92186982 24.39602448 386.67425467 12.87695312 388.93408203 C12.20438477 389.0768457 11.53181641 389.21960938 10.83886719 389.36669922 C2.53509355 391.12882572 -5.70851843 392.21050045 -14.18554688 392.68408203 C-14.93932617 392.72879639 -15.69310547 392.77351074 -16.46972656 392.81958008 C-24.37670297 393.15752071 -32.24029893 392.50337464 -40.12304688 391.93408203 C-40.1915535 392.49101746 -40.26006012 393.04795288 -40.3306427 393.62176514 C-41.05784412 399.52932409 -41.78879649 405.43641108 -42.52172852 411.34326172 C-42.79315795 413.53455401 -43.06369654 415.72595686 -43.33325195 417.91748047 C-44.78795474 429.73931095 -46.28123794 441.54514941 -48.14155579 453.31109619 C-48.84844272 457.83279367 -49.39989586 462.34116278 -49.80851746 466.89985657 C-51.0161415 480.2595561 -53.87675639 493.96750447 -60.12304688 505.93408203 C-60.64511719 506.98853516 -61.1671875 508.04298828 -61.70507812 509.12939453 C-63.16279307 512.07213523 -64.63659903 515.00577977 -66.12304688 517.93408203 C-66.78304688 517.93408203 -67.44304687 517.93408203 -68.12304688 517.93408203 C-68.40792969 518.52962891 -68.6928125 519.12517578 -68.98632812 519.73876953 C-74.98628364 531.32631248 -89.12158949 539.02163994 -101.12304688 542.93408203 C-102.49739678 543.41791105 -103.87102917 543.90378062 -105.24414062 544.39111328 C-131.55004679 553.59282569 -159.1500106 557.75645304 -185.11938477 545.25805664 C-191.36729533 542.04783616 -196.31241504 538.06131852 -201.12304688 532.93408203 C-201.83847656 532.21349609 -202.55390625 531.49291016 -203.29101562 530.75048828 C-211.41183837 522.20305571 -215.77633512 512.91427011 -217.81054688 501.37158203 C-218.01204346 500.28643311 -218.21354004 499.20128418 -218.42114258 498.08325195 C-221.72994413 479.6318018 -223.30456078 461.13184814 -224.31054688 442.43408203 C-224.35351898 441.64587067 -224.39649109 440.8576593 -224.44076538 440.04556274 C-225.04606834 428.66744095 -225.22205177 417.32726127 -225.12304688 405.93408203 C-226.12972412 406.48056396 -226.12972412 406.48056396 -227.15673828 407.03808594 C-247.88052129 418.28813957 -277.76298029 414.21376431 -299.68164062 408.23632812 C-307.41265042 405.83887896 -314.49103857 402.61549966 -321.12304688 397.93408203 C-322.11304688 397.27408203 -323.10304688 396.61408203 -324.12304688 395.93408203 C-324.81269531 396.46517578 -325.50234375 396.99626953 -326.21289062 397.54345703 C-336.74038016 405.45712543 -345.7754375 409.98630233 -359.12304688 408.93408203 C-378.60070458 405.3707276 -391.1861118 389.66861712 -402.09179688 374.48486328 C-404.46385574 371.05001765 -406.42459811 367.58453451 -408.2109375 363.81665039 C-409.67597283 360.79285825 -411.41312572 357.95125336 -413.12304688 355.05908203 C-415.81460076 350.42008086 -418.14450414 345.82961129 -420.00585938 340.79736328 C-421.2124028 337.70506843 -422.56688391 334.70578608 -423.94384766 331.68652344 C-427.62367534 323.60590137 -430.82824118 315.48507831 -433.68945312 307.08251953 C-434.85529134 303.66262074 -436.11766126 300.28982166 -437.41943359 296.91967773 C-440.28512351 289.49244507 -442.65822187 282.01004144 -444.83789062 274.35595703 C-445.94871992 270.47543688 -447.16365712 266.63458515 -448.40380859 262.79370117 C-450.8575532 255.19107775 -453.05933968 247.59734241 -454.92382812 239.82470703 C-455.9097656 235.7376783 -456.97012577 231.67137166 -458.04101562 227.60595703 C-464.58881737 202.7087272 -464.58881737 202.7087272 -466.41601562 191.92236328 C-467.13564839 187.69189539 -468.05004659 183.50690914 -468.95361328 179.3125 C-469.8443261 175.14999304 -470.69614168 170.98013598 -471.53857422 166.80761719 C-471.89657575 165.04751775 -472.2622586 163.28893211 -472.64111328 161.53320312 C-479.14356271 130.93860464 -476.81510359 96.49790284 -467.12304688 66.93408203 C-466.81625 65.86931641 -466.50945312 64.80455078 -466.19335938 63.70751953 C-463.71375626 55.39097457 -459.66956809 48.2551913 -455.12304688 40.93408203 C-454.589375 40.05880859 -454.05570313 39.18353516 -453.50585938 38.28173828 C-450.06216005 32.99625946 -445.98357977 28.52577764 -441.56054688 24.05908203 C-441.01825439 23.5111499 -440.47596191 22.96321777 -439.91723633 22.39868164 C-436.55835334 19.09987872 -433.11851947 16.46160475 -429.12304688 13.93408203 C-428.50042969 13.46486328 -427.8778125 12.99564453 -427.23632812 12.51220703 C-396.33053502 -10.28165339 -351.29024446 -10.07714561 -315.12304688 -5.06591797 C-300.46041972 -2.75089218 -286.09406764 0.80390008 -271.80371094 4.78637695 C-270.72702148 5.0800415 -269.65033203 5.37370605 -268.54101562 5.67626953 C-267.5899292 5.94294434 -266.63884277 6.20961914 -265.65893555 6.484375 C-261.15555013 7.28299211 -257.79120463 5.44444547 -253.68554688 3.68408203 C-252.08839844 3.01505859 -252.08839844 3.01505859 -250.45898438 2.33251953 C-248.29560767 1.42562391 -246.13402834 0.51442404 -243.97460938 -0.40185547 C-217.61573618 -11.14065566 -182.43549821 -11.33694228 -154.87304688 -4.62841797 C-147.99546194 -3.34817488 -141.807887 -5.71135885 -135.24804688 -7.62451172 C-92.90423711 -19.89090293 -40.0003517 -20.01087113 0 0 Z " fill="#F8F9FA" transform="translate(593.123046875,45.06591796875)"/>
<path d="M0 0 C1.05664856 0.00373123 1.05664856 0.00373123 2.13464355 0.00753784 C19.86158655 0.10425675 34.51633901 3.36420987 51.09936523 9.55371094 C52.99965838 10.22417422 54.94214029 10.77234049 56.88671875 11.30078125 C60.66152944 12.43629341 63.99641474 14.054016 67.4375 15.9375 C68.411427 16.46537109 68.411427 16.46537109 69.4050293 17.00390625 C79.38922058 22.50163118 88.52331601 28.99334569 97.25 36.3125 C98.28060547 37.17488281 98.28060547 37.17488281 99.33203125 38.0546875 C107.89407807 45.38393468 115.45366408 53.322975 122.25 62.3125 C123.00925781 63.29347656 123.76851562 64.27445313 124.55078125 65.28515625 C129.89576624 72.35683331 134.36697237 79.79049003 138.625 87.5625 C139.12483398 88.47290039 139.62466797 89.38330078 140.13964844 90.32128906 C148.25 105.43030997 148.25 105.43030997 148.25 110.3125 C147.25258789 110.34690186 146.25517578 110.38130371 145.22753906 110.41674805 C141.46908559 110.55245695 137.71241995 110.71821755 133.95556641 110.89233398 C132.34033725 110.96315483 130.72474519 111.02620067 129.10888672 111.08081055 C115.72206585 111.54142342 103.07470046 113.44408613 93.15234375 123.421875 C88.4798433 128.19886135 88.4798433 128.19886135 86.25 134.3125 C85.59 134.3125 84.93 134.3125 84.25 134.3125 C79.79635701 160.27397987 85.58346544 183.28227848 96.14819336 206.84301758 C97.04862326 208.86115374 97.90910102 210.89707446 98.7578125 212.9375 C100.6594683 217.23862726 102.84496319 221.35504021 105.0625 225.5 C107.84713484 230.74472951 110.62128584 235.98728248 113.25 241.3125 C117.42314431 249.72951987 121.81466443 258.03131302 126.25 266.3125 C126.60352539 266.97636719 126.95705078 267.64023437 127.32128906 268.32421875 C131.34045676 275.82037902 135.72813182 282.63496712 141.18945312 289.14013672 C142.44140625 290.66796875 142.44140625 290.66796875 144.25 293.3125 C143.25 296.3125 143.25 296.3125 141.17578125 297.453125 C140.31339844 297.81921875 139.45101562 298.1853125 138.5625 298.5625 C130.15154219 302.59400046 126.35833305 308.68886831 123.25 317.3125 C122.39504656 320.24843657 122.11677595 322.88739148 122.07421875 325.94140625 C121.52324607 350.4269701 118.53387201 374.72756426 114.55737305 398.88061523 C113.63237174 404.52516611 112.97333625 410.1212741 112.49829102 415.82080078 C112.17081942 419.1071086 111.52814938 422.27772376 110.8125 425.5 C109.4025727 432.20057682 108.50364652 438.84975551 107.77734375 445.65625 C105.7782284 459.5167831 99.31537166 474.36073866 88.25 483.3125 C83.12096774 486.3125 83.12096774 486.3125 80.25 486.3125 C80.25 486.9725 80.25 487.6325 80.25 488.3125 C63.85202535 494.53242142 43.83354104 501.14204368 26.34765625 495.2109375 C13.79366923 489.29014161 6.18287303 477.98321309 1.25 465.3125 C-0.81954746 457.46661561 -1.96189855 449.42801094 -2.875 441.375 C-2.95049072 440.70944092 -3.02598145 440.04388184 -3.10375977 439.3581543 C-4.55199951 425.49456501 -4.89865766 411.65988356 -4.94923019 397.73381615 C-4.9612375 394.7176091 -4.98073339 391.7015318 -5.00234985 388.68537903 C-5.06329205 380.12273495 -5.1180708 371.56011491 -5.15136719 362.99731445 C-5.17239442 357.72676176 -5.20773691 352.4564654 -5.25212479 347.18605995 C-5.26619221 345.19397313 -5.27498606 343.2018412 -5.27817917 341.20970726 C-5.09820684 321.08560089 -5.09820684 321.08560089 -15.30078125 304.41015625 C-22.15843634 298.53685357 -29.99706966 297.43808833 -38.75 296.3125 C-38.13625952 290.98411671 -36.94965604 286.14457294 -35.25 281.0625 C-34.99009277 280.27875 -34.73018555 279.495 -34.46240234 278.6875 C-32.50169129 272.99679385 -30.07277908 267.68554299 -27.375 262.3125 C-21.66529602 250.85311321 -18.03172538 238.66146473 -14.75 226.3125 C-14.53577393 225.5169873 -14.32154785 224.72147461 -14.10083008 223.90185547 C-12.21734261 215.90145407 -12.31110441 207.7356311 -12.3125 199.5625 C-12.31040024 198.38547012 -12.31040024 198.38547012 -12.30825806 197.18466187 C-12.33154775 181.17532737 -14.26563522 165.96406146 -17.75 150.3125 C-17.95286621 149.39307617 -18.15573242 148.47365234 -18.36474609 147.52636719 C-20.42879581 138.57697871 -22.95673532 130.84448527 -29.75 124.3125 C-30.40742188 123.66925781 -31.06484375 123.02601563 -31.7421875 122.36328125 C-42.16994184 113.25332004 -55.1372261 112.23575049 -68.3984375 113.08056641 C-82.72338863 114.49343015 -96.82032062 120.29351132 -109.75 126.3125 C-109.88629925 120.0799069 -109.46847175 114.31725028 -108.375 108.1875 C-108.24867188 107.42824219 -108.12234375 106.66898437 -107.9921875 105.88671875 C-107.19494114 101.25471741 -106.06039026 96.83089961 -104.75 92.3125 C-104.49805411 90.71175289 -104.26775683 89.10740091 -104.0625 87.5 C-100.41217798 66.84313895 -88.17958387 42.4053625 -72.75 28.3125 C-71.5434375 27.075 -71.5434375 27.075 -70.3125 25.8125 C-60.66450005 16.39981712 -50.56821912 9.28143692 -37.75 4.9375 C-37.05148926 4.69894287 -36.35297852 4.46038574 -35.63330078 4.21459961 C-23.98736679 0.52676494 -12.13804103 -0.06869303 0 0 Z " fill="#316192" transform="translate(404.75,69.6875)"/>
<path d="M0 0 C1.24394531 0.18304688 2.48789062 0.36609375 3.76953125 0.5546875 C34.55328843 5.77664422 34.55328843 5.77664422 45 11 C43.42246777 14.66947714 41.13219114 17.26796067 38.5 20.25 C30.79840001 29.24984541 23.83744215 39.43942351 19.85546875 50.65625 C18.89182151 53.29637944 17.71281017 55.77761749 16.5 58.3125 C10.0904945 72.32716799 6.95324468 87.93553595 4.3125 103.0625 C4.19318115 103.72080811 4.0738623 104.37911621 3.95092773 105.05737305 C1.86559174 117.6583513 1.85840373 130.53823527 1.95540047 143.2757225 C1.97319957 145.69091141 1.98321364 148.10603079 1.99131775 150.52127075 C2.01543398 157.37459854 2.0514218 164.22783008 2.09594727 171.08105469 C2.12287553 175.30756148 2.13981608 179.53401666 2.15081596 183.76059341 C2.15696988 185.35443173 2.16690337 186.94826062 2.18089485 188.54204941 C2.24745613 196.17970789 2.23656072 203.49663618 0.46183777 210.97839355 C-2.46846267 223.80522294 -1.25209297 239.98045609 4 252 C4.36222656 252.98226562 4.72445312 253.96453125 5.09765625 254.9765625 C8.96670357 265.12789344 14.20151972 275.28874246 22.5546875 282.4375 C24.39395848 284.42590105 25.11692039 286.46221782 26 289 C24.90945313 290.16402344 24.90945313 290.16402344 23.796875 291.3515625 C17.81332899 297.76917935 11.97783007 304.2819355 6.29858398 310.97045898 C3.35836207 314.42945835 0.37101265 317.83163196 -2.6875 321.1875 C-5.76764276 324.56733233 -8.65613395 328.04438108 -11.5 331.625 C-18.49871077 340.21819966 -24.77802591 346.3913529 -35.875 348.5625 C-46.60993266 346.63021212 -54.36550644 337.61015416 -60.34814453 329.07714844 C-72.93015751 310.27787789 -81.26032582 289.39677216 -89.17578125 268.328125 C-89.68044922 266.99394531 -89.68044922 266.99394531 -90.1953125 265.6328125 C-90.49453613 264.83762207 -90.79375977 264.04243164 -91.10205078 263.22314453 C-91.97014978 260.98746524 -91.97014978 260.98746524 -93.07275391 258.86157227 C-94.2218517 256.55460263 -94.69623994 254.32926848 -95.25 251.8125 C-96.50163674 246.57606059 -98.15051118 241.60774265 -100 236.5625 C-102.3260281 230.2074462 -104.10120879 223.98317151 -105.45703125 217.34375 C-105.76966669 215.05390786 -105.76966669 215.05390786 -107 214 C-107.28295618 212.52678249 -107.52426728 211.04556398 -107.75 209.5625 C-108.64672117 204.38962337 -109.93565928 199.41566081 -111.375 194.375 C-115.44725727 180.00021599 -118.56206866 165.63681977 -120.984375 150.890625 C-121.60029499 147.1830282 -122.30591 143.52363237 -123.140625 139.859375 C-125.98007026 126.83849031 -126.37676026 114.08687785 -126.375 100.8125 C-126.37681274 99.92177795 -126.37862549 99.03105591 -126.38049316 98.11334229 C-126.37721826 83.90518894 -124.95663817 71.07706578 -120.75 57.4375 C-120.28702515 55.93207642 -120.28702515 55.93207642 -119.81469727 54.39624023 C-116.51857964 44.01055169 -111.87968784 35.43480155 -105 27 C-103.87271484 25.56140625 -103.87271484 25.56140625 -102.72265625 24.09375 C-99.99554487 20.83354975 -96.89923104 18.34023445 -93.5 15.8125 C-92.66662109 15.17538086 -92.66662109 15.17538086 -91.81640625 14.52539062 C-66.09812892 -4.92972975 -30.46872229 -4.5303977 0 0 Z " fill="#316192" transform="translate(277,73)"/>
<path d="M0 0 C1.99157277 0.9911235 4.00180886 1.9346397 6.01757812 2.87548828 C14.30281428 6.80134426 21.66048943 11.22672159 28.87695312 16.93408203 C29.63492187 17.48966797 30.39289063 18.04525391 31.17382812 18.61767578 C48.00131042 31.29475556 65.45765723 48.06768887 68.99487305 69.61254883 C75.39999039 115.50311859 63.91602105 164.73088467 47.77148438 207.53417969 C46.77672695 210.20297484 45.82473186 212.88497377 44.87695312 215.57080078 C41.66483705 224.6330946 38.35147974 233.48312322 34.16601562 242.14501953 C32.93275449 244.81334817 31.94566378 247.46468715 31.00195312 250.24658203 C28.60365961 257.08469165 25.24624964 263.4163724 21.94140625 269.84912109 C20.56049147 272.55394042 19.21428943 275.27530204 17.86767578 277.99731445 C11.9755815 289.88749683 5.88352877 301.65455685 -1.12304688 312.93408203 C12.0158884 317.31372712 28.97927821 312.73107527 42.22216797 310.54736328 C52.03940873 308.94735734 59.12479422 308.30772098 67.75195312 313.74658203 C72.22408006 318.35024211 73.85418378 323.58143596 73.87695312 329.93408203 C72.88927537 342.25858267 66.95461995 353.80051105 58.87695312 362.93408203 C58.27496094 363.65466797 57.67296875 364.37525391 57.05273438 365.11767578 C53.94864661 368.7873674 50.90570775 372.24824562 46.87695312 374.93408203 C45.88695312 374.93408203 44.89695312 374.93408203 43.87695312 374.93408203 C43.87695312 375.59408203 43.87695312 376.25408203 43.87695312 376.93408203 C33.76166113 382.92186982 24.39602448 386.67425467 12.87695312 388.93408203 C12.20438477 389.0768457 11.53181641 389.21960938 10.83886719 389.36669922 C2.53509355 391.12882572 -5.70851843 392.21050045 -14.18554688 392.68408203 C-14.93932617 392.72879639 -15.69310547 392.77351074 -16.46972656 392.81958008 C-24.37670297 393.15752071 -32.24029893 392.50337464 -40.12304688 391.93408203 C-40.1915535 392.49101746 -40.26006012 393.04795288 -40.3306427 393.62176514 C-41.05784412 399.52932409 -41.78879649 405.43641108 -42.52172852 411.34326172 C-42.79315795 413.53455401 -43.06369654 415.72595686 -43.33325195 417.91748047 C-44.78795474 429.73931095 -46.28123794 441.54514941 -48.14155579 453.31109619 C-48.84844272 457.83279367 -49.39989586 462.34116278 -49.80851746 466.89985657 C-51.0161415 480.2595561 -53.87675639 493.96750447 -60.12304688 505.93408203 C-60.64511719 506.98853516 -61.1671875 508.04298828 -61.70507812 509.12939453 C-63.16279307 512.07213523 -64.63659903 515.00577977 -66.12304688 517.93408203 C-66.78304688 517.93408203 -67.44304687 517.93408203 -68.12304688 517.93408203 C-68.40792969 518.52962891 -68.6928125 519.12517578 -68.98632812 519.73876953 C-74.98628364 531.32631248 -89.12158949 539.02163994 -101.12304688 542.93408203 C-102.49739678 543.41791105 -103.87102917 543.90378062 -105.24414062 544.39111328 C-131.55004679 553.59282569 -159.1500106 557.75645304 -185.11938477 545.25805664 C-191.36729533 542.04783616 -196.31241504 538.06131852 -201.12304688 532.93408203 C-201.83847656 532.21349609 -202.55390625 531.49291016 -203.29101562 530.75048828 C-211.41183837 522.20305571 -215.77633512 512.91427011 -217.81054688 501.37158203 C-218.01204346 500.28643311 -218.21354004 499.20128418 -218.42114258 498.08325195 C-221.72994413 479.6318018 -223.30456078 461.13184814 -224.31054688 442.43408203 C-224.35351898 441.64587067 -224.39649109 440.8576593 -224.44076538 440.04556274 C-225.04606834 428.66744095 -225.22205177 417.32726127 -225.12304688 405.93408203 C-226.12972412 406.48056396 -226.12972412 406.48056396 -227.15673828 407.03808594 C-247.88052129 418.28813957 -277.76298029 414.21376431 -299.68164062 408.23632812 C-307.41265042 405.83887896 -314.49103857 402.61549966 -321.12304688 397.93408203 C-322.11304688 397.27408203 -323.10304688 396.61408203 -324.12304688 395.93408203 C-324.81269531 396.46517578 -325.50234375 396.99626953 -326.21289062 397.54345703 C-336.74038016 405.45712543 -345.7754375 409.98630233 -359.12304688 408.93408203 C-378.60070458 405.3707276 -391.1861118 389.66861712 -402.09179688 374.48486328 C-404.46385574 371.05001765 -406.42459811 367.58453451 -408.2109375 363.81665039 C-409.67597283 360.79285825 -411.41312572 357.95125336 -413.12304688 355.05908203 C-415.81460076 350.42008086 -418.14450414 345.82961129 -420.00585938 340.79736328 C-421.2124028 337.70506843 -422.56688391 334.70578608 -423.94384766 331.68652344 C-427.62367534 323.60590137 -430.82824118 315.48507831 -433.68945312 307.08251953 C-434.85529134 303.66262074 -436.11766126 300.28982166 -437.41943359 296.91967773 C-440.28512351 289.49244507 -442.65822187 282.01004144 -444.83789062 274.35595703 C-445.94871992 270.47543688 -447.16365712 266.63458515 -448.40380859 262.79370117 C-450.8575532 255.19107775 -453.05933968 247.59734241 -454.92382812 239.82470703 C-455.9097656 235.7376783 -456.97012577 231.67137166 -458.04101562 227.60595703 C-464.58881737 202.7087272 -464.58881737 202.7087272 -466.41601562 191.92236328 C-467.13564839 187.69189539 -468.05004659 183.50690914 -468.95361328 179.3125 C-469.8443261 175.14999304 -470.69614168 170.98013598 -471.53857422 166.80761719 C-471.89657575 165.04751775 -472.2622586 163.28893211 -472.64111328 161.53320312 C-479.14356271 130.93860464 -476.81510359 96.49790284 -467.12304688 66.93408203 C-466.81625 65.86931641 -466.50945312 64.80455078 -466.19335938 63.70751953 C-463.71375626 55.39097457 -459.66956809 48.2551913 -455.12304688 40.93408203 C-454.589375 40.05880859 -454.05570313 39.18353516 -453.50585938 38.28173828 C-450.06216005 32.99625946 -445.98357977 28.52577764 -441.56054688 24.05908203 C-441.01825439 23.5111499 -440.47596191 22.96321777 -439.91723633 22.39868164 C-436.55835334 19.09987872 -433.11851947 16.46160475 -429.12304688 13.93408203 C-428.50042969 13.46486328 -427.8778125 12.99564453 -427.23632812 12.51220703 C-396.33053502 -10.28165339 -351.29024446 -10.07714561 -315.12304688 -5.06591797 C-300.46041972 -2.75089218 -286.09406764 0.80390008 -271.80371094 4.78637695 C-270.72702148 5.0800415 -269.65033203 5.37370605 -268.54101562 5.67626953 C-267.5899292 5.94294434 -266.63884277 6.20961914 -265.65893555 6.484375 C-261.15555013 7.28299211 -257.79120463 5.44444547 -253.68554688 3.68408203 C-252.08839844 3.01505859 -252.08839844 3.01505859 -250.45898438 2.33251953 C-248.29560767 1.42562391 -246.13402834 0.51442404 -243.97460938 -0.40185547 C-217.61573618 -11.14065566 -182.43549821 -11.33694228 -154.87304688 -4.62841797 C-147.99546194 -3.34817488 -141.807887 -5.71135885 -135.24804688 -7.62451172 C-92.90423711 -19.89090293 -40.0003517 -20.01087113 0 0 Z M-127.96679688 8.31298828 C-129.93497327 8.77248345 -131.90372196 9.22953446 -133.87304688 9.68408203 C-135.28807495 10.01255127 -135.28807495 10.01255127 -136.73168945 10.34765625 C-145.90333046 12.34588014 -154.78527317 12.42439687 -164.12304688 11.93408203 C-164.12304688 11.27408203 -164.12304688 10.61408203 -164.12304688 9.93408203 C-171.72017535 8.71776921 -179.2552884 8.78648196 -186.93554688 8.80908203 C-188.23814453 8.80521484 -189.54074219 8.80134766 -190.8828125 8.79736328 C-211.21992297 8.81781286 -230.95230299 11.85931878 -248.49804688 22.80908203 C-253.65715756 25.9261856 -253.65715756 25.9261856 -257.81054688 25.99658203 C-258.90367187 25.64595703 -259.99679687 25.29533203 -261.12304688 24.93408203 C-262.44993949 24.63860691 -263.77970206 24.35587204 -265.11132812 24.08251953 C-270.71003159 22.85998372 -276.14421309 21.1648195 -281.62304688 19.49658203 C-290.38088777 16.87368909 -299.0163623 14.80443142 -308.05273438 13.44189453 C-311.12304688 12.93408203 -311.12304688 12.93408203 -313.12304688 11.93408203 C-340.40485898 9.06417712 -370.14967136 8.56394023 -396.12304688 17.93408203 C-397.15945313 18.29244141 -398.19585937 18.65080078 -399.26367188 19.02001953 C-421.51083137 27.40731763 -437.08109974 44.66906586 -447.1796875 65.79345703 C-452.38548172 77.60619091 -455.10707659 90.24362159 -457.12304688 102.93408203 C-457.29433105 103.81491455 -457.46561523 104.69574707 -457.64208984 105.60327148 C-458.22466633 109.63783544 -458.32223078 113.57388511 -458.36132812 117.64501953 C-458.3711673 118.48126358 -458.38100647 119.31750763 -458.3911438 120.17909241 C-458.55080909 137.29147235 -458.54597701 153.90340126 -454.83398438 170.69042969 C-453.97710547 174.59993968 -453.18996964 178.52147707 -452.40429688 182.44580078 C-450.95363068 189.65464317 -449.46866067 196.85550998 -447.94287109 204.04882812 C-447.42396777 206.50797865 -446.91403044 208.96905284 -446.41650391 211.43261719 C-444.43175702 221.10843237 -441.81757053 230.56305914 -439.12304688 240.05908203 C-438.24569416 243.16519366 -437.37104515 246.27205641 -436.49804688 249.37939453 C-436.18355843 250.49615067 -436.18355843 250.49615067 -435.86271667 251.63546753 C-434.66532759 255.91190389 -433.53964941 260.19743796 -432.48632812 264.51220703 C-431.31646122 269.28431301 -429.91531966 273.91703357 -428.31054688 278.55908203 C-427.78149703 280.1110277 -427.25286328 281.66311526 -426.72460938 283.21533203 C-426.4580957 283.99521484 -426.19158203 284.77509766 -425.91699219 285.57861328 C-425.13838851 287.88856662 -424.38779069 290.20566767 -423.64648438 292.52783203 C-421.00923284 300.74035681 -418.07934308 308.66250661 -414.51782227 316.52172852 C-413.01303937 319.84988015 -411.66091508 323.11957276 -410.62304688 326.62158203 C-409.04927048 331.78117804 -406.29090906 336.34652792 -403.64648438 341.01611328 C-402.39637499 343.41055357 -401.59460854 345.30225814 -401.12304688 347.93408203 C-400.46304688 347.93408203 -399.80304688 347.93408203 -399.12304688 347.93408203 C-398.72666016 349.25472656 -398.72666016 349.25472656 -398.32226562 350.60205078 C-395.18785025 359.31102901 -388.92136529 366.82095219 -383.12304688 373.93408203 C-382.37861328 374.93375 -382.37861328 374.93375 -381.61914062 375.95361328 C-375.09141297 384.24824466 -364.06219851 391.92407162 -353.48242188 393.27001953 C-341.56742833 393.4483877 -333.07291123 388.54343807 -324.12304688 380.93408203 C-318.42034235 375.28756179 -313.4895436 368.96120625 -308.44726562 362.73095703 C-305.23590432 358.86652898 -301.85171619 355.17488194 -298.45117188 351.47705078 C-296.51610426 349.36341149 -294.62096391 347.22748355 -292.74804688 345.05908203 C-291.54286428 343.68131959 -290.33398143 342.30679174 -289.12304688 340.93408203 C-288.66075684 340.40927246 -288.1984668 339.88446289 -287.72216797 339.34375 C-286.13610658 337.55265024 -284.53712683 335.7738098 -282.93554688 333.99658203 C-282.16815186 333.12573975 -282.16815186 333.12573975 -281.38525391 332.23730469 C-278.75648643 329.34368265 -277.03402583 327.48710562 -273.12304688 326.93408203 C-270.88867188 327.82470703 -270.88867188 327.82470703 -268.37304688 329.18408203 C-261.24824224 332.65464494 -253.8846944 333.7362368 -246.12304688 334.93408203 C-247.51217595 336.68940853 -248.90966461 338.4381211 -250.31054688 340.18408203 C-251.08785156 341.15861328 -251.86515625 342.13314453 -252.66601562 343.13720703 C-260.75978976 352.3504698 -271.79605692 354.90059185 -283.44262695 356.91748047 C-293.44580515 358.65378027 -302.0181973 361.21217051 -308.18554688 369.80908203 C-309.66902274 374.75400157 -309.39764225 378.55630238 -306.99023438 383.04736328 C-300.14858504 392.97336273 -289.40650066 396.28142256 -278.12304688 398.93408203 C-257.45378919 402.60974805 -235.26489828 399.66023476 -217.44726562 388.21533203 C-215.61012422 386.84503277 -213.86626339 385.41972566 -212.12304688 383.93408203 C-211.13304687 383.27408203 -210.14304687 382.61408203 -209.12304688 381.93408203 C-209.1274881 382.62136887 -209.13192932 383.3086557 -209.13650513 384.01676941 C-209.1773692 390.64469709 -209.20741682 397.27258735 -209.22667122 403.90061474 C-209.23690421 407.30434504 -209.25184962 410.70788695 -209.27392578 414.11157227 C-210.97985646 471.67083695 -210.97985646 471.67083695 -186.60351562 521.57861328 C-173.39252153 534.12385649 -159.8903886 537.38959414 -142.20898438 537.14501953 C-122.42580923 536.53918317 -99.52922158 529.59516676 -84.76757812 515.80517578 C-67.9051273 496.61963197 -64.41631081 471.7193484 -60.49804688 447.30908203 C-60.27442978 445.93823959 -60.27442978 445.93823959 -60.04629517 444.53970337 C-57.5088929 428.88185996 -55.84428306 413.26253189 -54.72851562 397.44580078 C-54.20622608 390.20969955 -53.25243876 383.09990287 -52.12304688 375.93408203 C-51.24406738 376.0878833 -50.36508789 376.24168457 -49.45947266 376.40014648 C-29.18320126 379.83821483 -8.72515598 378.103428 10.87695312 371.93408203 C11.80121094 371.68271484 12.72546875 371.43134766 13.67773438 371.17236328 C30.49964056 366.24833511 45.76240385 355.14198675 55.87695312 340.93408203 C57.63657886 337.41483056 57.55187179 333.76487037 56.87695312 329.93408203 C54.58268133 326.00623064 52.21719727 323.38083008 47.87695312 321.93408203 C38.94864362 321.0750491 30.57702509 322.38845243 21.81445312 323.93408203 C13.63976439 325.34881372 5.68105825 326.34156267 -2.62304688 326.37158203 C-3.45199463 326.38125 -4.28094238 326.39091797 -5.13500977 326.40087891 C-10.90733384 326.32083036 -15.76115044 325.03607996 -21.12304688 322.93408203 C-20.5999236 318.11584138 -18.29050017 314.69648404 -15.68554688 310.74658203 C-6.23270072 296.00975856 1.82152752 280.46603229 9.87695312 264.93408203 C10.40417969 263.92216797 10.93140625 262.91025391 11.47460938 261.86767578 C13.88661688 257.15430332 15.95027567 252.39049879 17.86132812 247.45361328 C18.85970106 244.97688043 19.9746009 242.59249818 21.12695312 240.18408203 C26.98671258 227.43367952 31.41831348 213.91052125 35.46679688 200.48876953 C36.58076805 196.82507964 37.78556774 193.19650707 39.00585938 189.56689453 C44.04098484 174.49824024 48.23679734 159.60852045 50.87695312 143.93408203 C51.03921387 142.99773926 51.20147461 142.06139648 51.36865234 141.09667969 C53.49176235 128.3952672 54.17381717 115.78680977 54.25195312 102.93408203 C54.25989899 102.2534671 54.26784485 101.57285217 54.27603149 100.87161255 C54.46170641 80.24297376 50.48520232 64.1256007 35.87695312 48.93408203 C34.88887016 47.7330288 33.90867131 46.52540967 32.93945312 45.30908203 C13.92826639 22.99843313 -16.31494352 11.57300626 -44.12304688 5.93408203 C-44.88681641 5.7689209 -45.65058594 5.60375977 -46.4375 5.43359375 C-73.32501162 -0.25324434 -101.47476614 2.0530649 -127.96679688 8.31298828 Z " fill="#030303" transform="translate(593.123046875,45.06591796875)"/>
<path d="M0 0 C0.72413086 0.2985791 1.44826172 0.5971582 2.19433594 0.90478516 C23.02794043 9.64076288 45.51656076 24.96572024 57 45 C68.62509236 74.34141461 57.4773954 116.90145659 48.69824219 145.61914062 C48.09284133 147.68343054 47.5788717 149.77411497 47.08203125 151.8671875 C45.72810634 157.43068946 43.65831279 162.75677745 41.6875 168.125 C40.87081294 170.36578309 40.0544044 172.60666771 39.23828125 174.84765625 C38.84850098 175.91516113 38.4587207 176.98266602 38.05712891 178.08251953 C37.20141889 180.44412108 36.3618736 182.80907186 35.54296875 185.18359375 C32.70981146 193.37985146 29.36093492 201.27064085 25.81005859 209.17480469 C25.01981496 210.95535364 24.25948388 212.74908364 23.5 214.54296875 C20.62551977 221.1677474 17.27861746 227.56834991 14 234 C13.25919189 235.4547876 13.25919189 235.4547876 12.50341797 236.93896484 C5.52240022 250.60932622 -1.47565466 264.21348199 -10 277 C-10.99 276.67 -11.98 276.34 -13 276 C-12.21971893 272.20200538 -10.69686102 268.81132778 -9.1875 265.25 C-0.70267618 244.09938759 -0.26166616 223.55999867 -3.5 201.0625 C-6.33217842 181.20072822 -5.61901083 161.90207254 -2.43896484 142.13818359 C-1.24882839 134.51979422 -0.5877586 127.08771274 -0.5625 119.375 C-0.55283203 118.46959473 -0.54316406 117.56418945 -0.53320312 116.63134766 C-0.63676518 108.49715767 -2.9107674 101.29101725 -6 93.8125 C-6.50273438 92.58466797 -6.50273438 92.58466797 -7.015625 91.33203125 C-7.90993626 89.21336529 -8.82574788 87.10572535 -9.75 85 C-11 82 -11 82 -11 80 C-11.66 80 -12.32 80 -13 80 C-13.35191406 79.26136719 -13.70382812 78.52273437 -14.06640625 77.76171875 C-19.07498967 67.46992984 -24.91551165 57.98727658 -32 49 C-32.60972656 48.20464844 -33.21945312 47.40929687 -33.84765625 46.58984375 C-43.11033837 34.8340285 -53.87505195 23.80434413 -66 15 C-66.95777344 14.29875 -67.91554688 13.5975 -68.90234375 12.875 C-75.85762953 7.9229053 -83.03241765 3.51193356 -90.43969727 -0.72607422 C-91.13377686 -1.12455566 -91.82785645 -1.52303711 -92.54296875 -1.93359375 C-93.4714563 -2.4603772 -93.4714563 -2.4603772 -94.41870117 -2.99780273 C-96 -4 -96 -4 -98 -6 C-65.49569626 -11.99098932 -31.07290518 -13.00964491 0 0 Z " fill="#326192" transform="translate(571,74)"/>
<path d="M0 0 C8.61690872 8.87961935 9.32764346 20.89974472 10.62939453 32.57275391 C10.99569392 35.58815006 11.56044801 38.5560488 12.109375 41.54296875 C14.54687573 59.00130734 13.97968843 76.99851658 9.42138672 94.02148438 C8.69359019 96.8757558 8.21201054 99.77312469 7.671875 102.66796875 C6.37165952 108.24429398 4.01394239 112.95842166 1.33056641 117.9609375 C-3.95691887 128.14743974 -7.35289447 139.26145903 -11.06005859 150.09643555 C-11.99895987 152.7562055 -13.00961764 155.37046383 -14.078125 157.98046875 C-22.08809142 158.52351732 -28.57062453 156.70959838 -36.078125 153.98046875 C-36.8 153.72652344 -37.521875 153.47257813 -38.265625 153.2109375 C-47.46298913 149.32121892 -57.22073898 139.60088901 -62.078125 130.98046875 C-62.72265625 128.7578125 -62.72265625 128.7578125 -63.078125 126.98046875 C-63.738125 126.98046875 -64.398125 126.98046875 -65.078125 126.98046875 C-72.09684578 110.6332951 -73.39446188 96.65077035 -71.57788086 79.04370117 C-70.53012301 68.64879507 -69.94519733 58.4589724 -70.19921875 48.0078125 C-70.22202408 46.93111801 -70.24482941 45.85442352 -70.26832581 44.74510193 C-70.3674181 40.3393742 -70.47607733 35.93556924 -70.6472168 31.53198242 C-70.76800383 28.25269759 -70.83193637 24.97627355 -70.88671875 21.6953125 C-70.93944443 20.7047435 -70.9921701 19.7141745 -71.04649353 18.69358826 C-71.06834895 15.85613142 -70.9809436 13.67358186 -70.078125 10.98046875 C-67.39724618 8.28718695 -64.47941775 6.62833947 -61.078125 4.98046875 C-60.35124481 4.61547272 -59.62436462 4.25047668 -58.87545776 3.87442017 C-56.96666532 2.94490844 -55.03805556 2.10869877 -53.078125 1.29296875 C-52.03676392 0.85090088 -52.03676392 0.85090088 -50.97436523 0.39990234 C-35.5960219 -6.05644809 -14.24057955 -11.61876742 0 0 Z " fill="#326292" transform="translate(364.078125,204.01953125)"/>
<path d="M0 0 C13.94476876 13.81468696 18.86673972 30.66621973 19.12109375 49.96533203 C18.92120791 65.38152737 15.93983958 79.87649616 6.09375 92.07421875 C5.578125 92.71746094 5.0625 93.36070312 4.53125 94.0234375 C3.40792968 95.39248413 2.25491483 96.73711985 1.09375 98.07421875 C1.5784375 98.49832031 2.063125 98.92242188 2.5625 99.359375 C7.40625 103.59765625 12.25 107.8359375 17.09375 112.07421875 C15.70541236 116.4916567 13.69661648 119.15761255 10.09375 122.07421875 C5.58716728 121.58125881 2.74485092 118.51427614 -0.53125 115.63671875 C-1.11648438 115.13333984 -1.70171875 114.62996094 -2.3046875 114.11132812 C-4.56916952 112.15587518 -6.79009805 110.1903707 -8.90625 108.07421875 C-13.52457492 108.57860918 -17.69810839 110.45373674 -21.9921875 112.13671875 C-39.79746617 117.86495854 -61.71383714 114.95769579 -78.34375 107.26171875 C-83.53537772 104.48820488 -87.79289868 101.27094881 -91.90625 97.07421875 C-92.70289063 96.27564453 -92.70289063 96.27564453 -93.515625 95.4609375 C-105.51620728 82.50154581 -109.25310565 64.52563453 -109.05859375 47.34375 C-108.32298409 31.55643495 -104.99537136 18.38334324 -94.90625 6.07421875 C-94.44605469 5.42839844 -93.98585938 4.78257812 -93.51171875 4.1171875 C-86.77834612 -4.89454686 -73.98429549 -11.48278527 -62.95410156 -13.23608398 C-40.59487458 -16.03222568 -17.97061862 -14.91963672 0 0 Z M-83.125 12.92578125 C-94.76058804 26.95993349 -95.21362899 43.58999377 -93.90625 61.07421875 C-92.66527839 71.50538399 -88.61762375 79.13067873 -81.90625 87.07421875 C-81.28105469 87.925 -80.65585937 88.77578125 -80.01171875 89.65234375 C-73.18501329 97.50495485 -61.13735611 102.05110814 -50.90625 103.07421875 C-39.79620068 103.64671727 -29.81425832 102.25184115 -19.90625 97.07421875 C-19.08125 96.67589844 -18.25625 96.27757812 -17.40625 95.8671875 C-10.17889325 92.0441802 -6.16782178 86.95981389 -1.90625 80.07421875 C-1.473125 79.38070312 -1.04 78.6871875 -0.59375 77.97265625 C6.96264197 64.47116178 6.15869377 43.30264826 2.05859375 28.75390625 C-2.09878022 17.20751537 -10.269592 7.73943622 -20.82421875 1.48046875 C-41.77264693 -8.07774943 -67.46285285 -3.82758107 -83.125 12.92578125 Z " fill="#306091" transform="translate(704.90625,682.92578125)"/>
<path d="M0 0 C4.99222498 -0.09445058 9.97457418 -0.06341633 14.96630859 0.04150391 C16.61373047 0.06664062 16.61373047 0.06664062 18.29443359 0.09228516 C29.91132809 0.62447273 38.46580723 4.8866849 46.90771484 12.76025391 C53.4680159 20.03011314 54.31658833 28.583951 53.96630859 38.04150391 C51.65387067 38.06835802 49.34134589 38.08783232 47.02880859 38.10400391 C45.09714844 38.12140625 45.09714844 38.12140625 43.12646484 38.13916016 C39.96630859 38.04150391 39.96630859 38.04150391 38.96630859 37.04150391 C38.72110895 35.16853314 38.49532811 33.29300641 38.27880859 31.41650391 C37.02375171 23.64622527 34.02371175 20.35015527 27.90380859 15.72900391 C16.07507437 9.65830991 -1.52931626 10.90282182 -14.03369141 14.04150391 C-17.70745257 15.83862517 -19.72839577 17.51813996 -21.78369141 21.04150391 C-22.19103516 21.72212891 -22.59837891 22.40275391 -23.01806641 23.10400391 C-25.69355099 28.20800527 -26.03776829 33.77108206 -24.35009766 39.26806641 C-22.14295769 44.1585757 -19.79512429 46.35377199 -15.03369141 49.04150391 C-11.8780668 50.21742409 -8.66777842 51.07606773 -5.40869141 51.91650391 C-3.99233398 52.29657593 -3.99233398 52.29657593 -2.54736328 52.68432617 C4.19433186 54.44873717 10.97628349 55.8820767 17.80908203 57.24462891 C44.85943845 62.67636937 44.85943845 62.67636937 52.65380859 71.79150391 C58.74037029 81.47381897 59.12514629 92.68097477 56.72412109 103.55322266 C54.49666874 110.86707393 50.41089439 117.52541635 43.66162109 121.34619141 C25.7266324 130.13173659 1.94173157 131.45505221 -17.03369141 125.04150391 C-28.40675642 120.8292576 -35.29288834 115.88390423 -41.08837891 105.25244141 C-43.14147964 100.45056119 -43.14456888 95.90539316 -43.09619141 90.72900391 C-43.08716797 89.47474609 -43.07814453 88.22048828 -43.06884766 86.92822266 C-43.05144531 85.49929688 -43.05144531 85.49929688 -43.03369141 84.04150391 C-40.88792504 84.01464452 -38.74206495 83.99517303 -36.59619141 83.97900391 C-35.40123047 83.96740234 -34.20626953 83.95580078 -32.97509766 83.94384766 C-30.03369141 84.04150391 -30.03369141 84.04150391 -29.03369141 85.04150391 C-28.73498871 86.72429434 -28.47005538 88.41312435 -28.22119141 90.10400391 C-26.50467281 99.64982316 -22.98502413 105.36844679 -15.03369141 111.04150391 C-3.56878979 117.43539135 11.76460978 117.32898138 24.35302734 114.81494141 C27.92577337 113.75753675 30.93436092 112.11828031 34.09130859 110.16259766 C35.96630859 109.04150391 35.96630859 109.04150391 38.96630859 108.04150391 C42.2976473 99.34986299 43.17435512 90.82637503 39.92724609 82.05322266 C38.1853496 78.40656943 35.94361474 76.77681633 32.18847656 75.38037109 C22.13320308 72.2860923 11.76938548 70.28710648 1.48754883 68.09912109 C-29.51879751 61.47879307 -29.51879751 61.47879307 -36.03369141 52.04150391 C-41.61058015 43.17525264 -41.01058915 32.33705937 -39.66650391 22.29931641 C-37.92428918 15.592983 -33.28032356 10.37337742 -28.03369141 6.04150391 C-19.06504678 0.97781178 -10.08658009 0.20584857 0 0 Z " fill="#306091" transform="translate(538.03369140625,668.95849609375)"/>
<path d="M0 0 C-0.75024039 17.01861086 -0.75024039 17.01861086 -2.49853516 24.59912109 C-4.37577241 33.58682856 -4.23589331 42.86021884 -4.25 52 C-4.25350464 53.04713165 -4.25350464 53.04713165 -4.25708008 54.11541748 C-4.26909187 63.72184818 -3.75517849 73.08723782 -2.5 82.625 C-0.13226812 100.83285817 0.93557568 118.59268188 -6 136 C-6.99 136.33 -7.98 136.66 -9 137 C-9.53367187 135.82566406 -10.06734375 134.65132812 -10.6171875 133.44140625 C-14.42418854 125.1760359 -18.35426765 117.1059717 -23.0625 109.3125 C-27.4649233 102.02032434 -31.39139246 94.5932756 -35.07519531 86.91455078 C-35.9672835 85.06773041 -36.88325395 83.23466008 -37.8046875 81.40234375 C-42.569663 71.67120489 -46.07791217 61.65210246 -49.28369141 51.30859375 C-49.87325658 49.40848186 -50.48619703 47.51563874 -51.10546875 45.625 C-54.03311344 35.72873625 -55.338425 22.86522229 -50.9375 13.25 C-49.515625 10.9765625 -49.515625 10.9765625 -48 9 C-47.56171875 8.40960938 -47.1234375 7.81921875 -46.671875 7.2109375 C-36.10621664 -4.07763433 -13.62903093 -1.94700442 0 0 Z " fill="#346393" transform="translate(555,196)"/>
<path d="M0 0 C1.875 2.25 1.875 2.25 3 4 C3.144375 2.700625 3.28875 1.40125 3.4375 0.0625 C3.875 -3.875 3.875 -3.875 5 -5 C6.49738124 -5.0979057 7.99942892 -5.12974864 9.5 -5.125 C10.3146875 -5.12757813 11.129375 -5.13015625 11.96875 -5.1328125 C14 -5 14 -5 15 -4 C15.10463975 -2.00826248 15.1385599 -0.01278363 15.14526367 1.98168945 C15.15164352 3.26425125 15.15802338 4.54681305 15.16459656 5.86824036 C15.16612673 7.28325361 15.16723989 8.69826736 15.16796875 10.11328125 C15.17118275 11.56284112 15.17454693 13.01240065 15.17805481 14.46195984 C15.18405891 17.51281483 15.18589382 20.56364147 15.18530273 23.61450195 C15.18520199 27.4931586 15.1987567 31.37162855 15.21607494 35.25024128 C15.22729759 38.25230208 15.22921869 41.25431955 15.22869301 44.25639915 C15.22986148 45.6838971 15.23421842 47.1113966 15.24202538 48.53887367 C15.31894666 64.08077855 14.3665714 74.67724901 3.8125 86.4375 C-8.7091783 93.39398794 -26.82891548 92.73517059 -40.32421875 89.03125 C-46.41227909 86.68490266 -49.62815568 83.25962392 -52.4375 77.4375 C-53.97088749 73.8382097 -54 72.19378558 -54 68 C-49.05 67.505 -49.05 67.505 -44 67 C-42 70 -42 70 -41.1875 72.9375 C-39.73426909 76.68530604 -38.39487577 77.88763285 -35 80 C-27.51300264 83.18595632 -17.78828651 83.18250129 -9.9375 81.25 C-6.78978368 79.91054625 -4.58552204 78.21616175 -2 76 C-1.34 76 -0.68 76 0 76 C3.21819111 68.22270481 3.32098157 61.35740901 3 53 C1.7934375 54.11375 1.7934375 54.11375 0.5625 55.25 C-7.97903615 62.24214122 -17.33321366 63.44707067 -28.1484375 62.81640625 C-37.99327948 61.58896451 -45.60468593 57.43722033 -51.84375 49.7109375 C-58.17332336 40.34487962 -57.80346613 25.77682897 -55.8125 14.98828125 C-53.51912316 6.55350585 -48.28747042 1.59427483 -41 -3 C-28.18214074 -9.36231923 -11.38993325 -9.16750725 0 0 Z M-41 10 C-46.17695646 18.5112674 -47.45912414 27.20540387 -45.3515625 37.01953125 C-43.33091677 43.33189035 -40.76687965 47.5866973 -35 51 C-27.43948162 54.39451846 -18.11016694 53.58716671 -10.0625 52.4375 C-4.23358064 49.70147663 0.1888767 44.77842012 3 39 C5.07154578 32.58112575 5.33626828 23.4677554 2.9375 17.125 C-1.07136905 10.65908218 -4.84763756 5.40091791 -12.48046875 3.3984375 C-22.44246959 1.82305132 -33.65682351 2.23721343 -41 10 Z " fill="#191919" transform="translate(349,725)"/>
<path d="M0 0 C9.054375 -0.061875 18.10875 -0.12375 27.4375 -0.1875 C30.27915771 -0.21481201 33.12081543 -0.24212402 36.04858398 -0.27026367 C38.32274959 -0.27903264 40.59691994 -0.28667561 42.87109375 -0.29296875 C44.03419067 -0.30831665 45.1972876 -0.32366455 46.39562988 -0.33947754 C56.36998085 -0.34266118 64.30081984 1.34590644 72.046875 7.88671875 C78.34559093 14.70192939 78.58466342 23.59741441 78.46899414 32.43017578 C78.13006963 40.76683851 76.44659796 47.01154509 70.3125 52.9375 C61.59440583 59.81169299 50.80459089 60.16942393 40.125 60.09765625 C39.31506592 60.0962413 38.50513184 60.09482635 37.6706543 60.09336853 C35.11373006 60.08782383 32.55689724 60.07528207 30 60.0625 C28.25390753 60.05747784 26.50781366 60.05291619 24.76171875 60.04882812 C20.50777791 60.0378726 16.25390439 60.02064694 12 60 C12.00523682 61.26706787 12.01047363 62.53413574 12.01586914 63.83959961 C12.03391514 68.5228607 12.04543053 73.20611871 12.05493164 77.8894043 C12.05997278 79.91968298 12.06680557 81.94995802 12.07543945 83.98022461 C12.08751467 86.89177347 12.09323034 89.8032745 12.09765625 92.71484375 C12.10281754 93.6283812 12.10797882 94.54191864 12.11329651 95.48313904 C12.11349168 97.65575427 12.06211805 99.82827296 12 102 C11.505 102.495 11.505 102.495 11 103 C7.37 103 3.74 103 0 103 C0 69.01 0 35.02 0 0 Z M12 10 C12 23.2 12 36.4 12 50 C18.27 50.061875 24.54 50.12375 31 50.1875 C32.96324219 50.21481201 34.92648438 50.24212402 36.94921875 50.27026367 C38.5286396 50.27903648 40.10806731 50.28667853 41.6875 50.29296875 C42.48865234 50.30831665 43.28980469 50.32366455 44.11523438 50.33947754 C50.9589442 50.34261494 56.4610931 49.09735787 61.875 44.625 C67.10492738 38.16450147 66.72136974 30.98015278 66 23 C64.70362852 18.19016717 62.82842933 15.65936212 58.9375 12.5625 C55.41612399 10.68942765 52.82917936 9.87437176 48.89575195 9.88647461 C48.07512772 9.88655014 47.25450348 9.88662567 46.40901184 9.88670349 C45.0870002 9.89444542 45.0870002 9.89444542 43.73828125 9.90234375 C42.37959175 9.90446617 42.37959175 9.90446617 40.99345398 9.90663147 C38.09976909 9.91222999 35.20616151 9.92478219 32.3125 9.9375 C30.35091258 9.94251519 28.38932394 9.94707807 26.42773438 9.95117188 C21.61843582 9.96134813 16.80930447 9.98092387 12 10 Z " fill="#191919" transform="translate(30,686)"/>
<path d="M0 0 C1.65322266 0.01740234 1.65322266 0.01740234 3.33984375 0.03515625 C4.99693359 0.04869141 4.99693359 0.04869141 6.6875 0.0625 C7.54214844 0.07410156 8.39679687 0.08570313 9.27734375 0.09765625 C10.45605146 2.45507167 10.40061912 3.84808023 10.39759827 6.47622681 C10.39897293 7.39611893 10.4003476 8.31601105 10.40176392 9.26377869 C10.39816864 10.27581863 10.39457336 11.28785858 10.39086914 12.33056641 C10.39101517 13.39399765 10.39116119 14.45742889 10.39131165 15.55308533 C10.39061294 19.08098362 10.38282246 22.60882964 10.375 26.13671875 C10.37313567 28.57766694 10.37171184 31.01861551 10.37071228 33.45956421 C10.36688826 39.8941348 10.35705895 46.32868293 10.3460083 52.76324463 C10.33399644 60.47830745 10.32939139 68.19337777 10.32355499 75.90844727 C10.31384715 87.63819923 10.29468976 99.36790188 10.27734375 111.09765625 C35.02734375 111.09765625 59.77734375 111.09765625 85.27734375 111.09765625 C85.27734375 115.05765625 85.27734375 119.01765625 85.27734375 123.09765625 C55.90734375 123.09765625 26.53734375 123.09765625 -3.72265625 123.09765625 C-3.76281992 92.64913297 -3.76281992 92.64913297 -3.77291012 77.66155529 C-3.77846196 69.54007067 -3.78552174 61.41859626 -3.7980957 53.29711914 C-3.80804271 46.86933445 -3.81450972 40.44155745 -3.81674474 34.01376528 C-3.81805182 30.60826347 -3.8211375 27.20278367 -3.82838631 23.79728889 C-3.83559231 20.00164584 -3.83664738 16.20604913 -3.83618164 12.41040039 C-3.83977692 11.27320557 -3.84337219 10.13601074 -3.84707642 8.96435547 C-3.84570175 7.93645401 -3.84432709 6.90855255 -3.84291077 5.84950256 C-3.84383256 4.9507544 -3.84475435 4.05200624 -3.84570408 3.12602329 C-3.65411323 -0.0322329 -3.19699604 0.11466987 0 0 Z " fill="#306091" transform="translate(733.72265625,670.90234375)"/>
<path d="M0 0 C7.54731 7.74768106 8.375 17.55632259 8.375 27.875 C-11.755 27.875 -31.885 27.875 -52.625 27.875 C-50.77535011 39.30359 -50.77535011 39.30359 -44.625 46.875 C-36.75879933 51.70127451 -28.4860476 53.36449238 -19.33984375 51.37890625 C-12.93848355 49.19578341 -8.32983727 45.65756257 -5.25 39.5625 C-4.71375 38.345625 -4.1775 37.12875 -3.625 35.875 C-0.325 35.875 2.975 35.875 6.375 35.875 C7.375 37.875 7.375 37.875 6.9140625 39.94140625 C4.07769346 47.68687555 -0.44573181 53.73448947 -7.58984375 58.06640625 C-13.88314744 60.91698363 -20.16703432 61.05723116 -26.9375 61.0625 C-27.75412109 61.07474609 -28.57074219 61.08699219 -29.41210938 61.09960938 C-38.38109237 61.12104917 -46.76603511 59.48794136 -53.4765625 53.1171875 C-62.68169949 43.1286346 -64.11217233 33.55589297 -63.90625 20.4140625 C-63.55381935 11.90286221 -60.71083257 4.82251819 -54.625 -1.125 C-38.74643662 -15.26249284 -15.47669161 -13.9980268 0 0 Z M-47.625 5.875 C-51.48180928 10.6960116 -51.27509627 14.12548133 -52.625 20.875 C-36.455 20.875 -20.285 20.875 -3.625 20.875 C-4.72302745 10.99275291 -6.15846212 7.56474868 -13.5 1.5 C-24.84118228 -4.39741478 -38.49616857 -3.47648585 -47.625 5.875 Z " fill="#191919" transform="translate(475.625,729.125)"/>
<path d="M0 0 C3.64251498 3.88900096 4.70043139 7.92345089 4.74609375 13.1015625 C4.65328125 14.865 4.65328125 14.865 4.55859375 16.6640625 C1.25859375 16.6640625 -2.04140625 16.6640625 -5.44140625 16.6640625 C-8.52176339 8.62834821 -8.52176339 8.62834821 -9.44140625 4.6640625 C-20.16307676 2.15711658 -32.48790082 0.73150959 -42.44140625 6.6640625 C-44.01355215 9.80835429 -44.44568538 13.3164654 -43.44140625 16.6640625 C-38.5665953 21.03458266 -33.39041586 21.70424596 -27.06640625 22.6640625 C-25.09969759 22.99800414 -23.13355107 23.33527264 -21.16796875 23.67578125 C-20.20020508 23.84126465 -19.23244141 24.00674805 -18.23535156 24.17724609 C0.17301655 27.38471604 0.17301655 27.38471604 4.49609375 32.2265625 C8.36439596 37.81134608 8.39637323 44.1082347 7.55859375 50.6640625 C5.18625599 56.59928391 1.55542485 60.35978327 -4.21875 63.0078125 C-16.09036006 66.51296274 -36.73638691 67.23668277 -47.8359375 61.40625 C-52.07350317 58.48958318 -54.81398953 55.64204306 -56.44140625 50.6640625 C-56.94360108 47.3194449 -57.21294594 44.04527513 -57.44140625 40.6640625 C-53.81140625 40.6640625 -50.18140625 40.6640625 -46.44140625 40.6640625 C-46.13203125 41.7571875 -45.82265625 42.8503125 -45.50390625 43.9765625 C-44.5531485 48.52578488 -44.5531485 48.52578488 -41.734375 51.796875 C-41.03957031 52.12429688 -40.34476563 52.45171875 -39.62890625 52.7890625 C-38.94183594 53.12164063 -38.25476563 53.45421875 -37.546875 53.796875 C-29.12570687 57.26533386 -17.51904299 56.99993288 -9.1171875 53.56640625 C-6.61594659 52.21958422 -5.52155261 51.32842351 -4.44140625 48.6640625 C-3.94000558 45.86889783 -3.62829424 43.40296612 -4.44140625 40.6640625 C-8.33753237 36.82478692 -12.13198456 35.74259087 -17.375 34.84765625 C-18.50833519 34.63375999 -18.50833519 34.63375999 -19.66456604 34.4155426 C-22.06701057 33.96360864 -24.47235951 33.53107044 -26.87890625 33.1015625 C-29.28141087 32.66652024 -31.6828235 32.22707682 -34.08253479 31.77687073 C-35.57117069 31.49815589 -37.06148627 31.22821653 -38.55357361 30.96861267 C-44.24410709 29.91217925 -48.77301071 28.46773335 -52.75390625 24.1640625 C-56.21071033 19.04287127 -56.04376232 13.64579293 -55.44140625 7.6640625 C-53.80422795 2.79701614 -50.74169537 -0.59938988 -46.44140625 -3.3359375 C-32.63813201 -9.82988298 -12.10733188 -10.21949427 0 0 Z " fill="#191919" transform="translate(244.44140625,725.3359375)"/>
<path d="M0 0 C12.0949981 -0.38464658 21.39130919 2.54496904 30.62109375 10.55859375 C37.8505485 18.31865068 39.10287527 28.9784022 39.04736328 39.12744141 C38.63997879 48.5064911 35.88495597 57.06632078 29.29296875 63.828125 C21.16731456 71.18246985 13.17147252 72.29636554 2.5859375 72.3046875 C1.36777344 72.32305664 1.36777344 72.32305664 0.125 72.34179688 C-7.25687038 72.35954176 -13.73554362 71.51470983 -19.9140625 67.1171875 C-20.65398437 66.6015625 -21.39390625 66.0859375 -22.15625 65.5546875 C-24.0390625 64.1171875 -24.0390625 64.1171875 -26.0390625 62.1171875 C-26.0390625 61.1271875 -26.0390625 60.1371875 -26.0390625 59.1171875 C-26.6990625 59.1171875 -27.3590625 59.1171875 -28.0390625 59.1171875 C-34.16906741 47.86892606 -35.36771055 35.44903598 -32.0390625 23.1171875 C-28.67554189 13.80883978 -23.47145871 7.53707938 -14.5390625 3.2421875 C-9.6337432 1.20387362 -5.29912899 0.30454764 0 0 Z M-13.0390625 13.1171875 C-13.3690625 14.1071875 -13.6990625 15.0971875 -14.0390625 16.1171875 C-14.6990625 16.1171875 -15.3590625 16.1171875 -16.0390625 16.1171875 C-17.60390601 18.22607758 -17.60390601 18.22607758 -19.1015625 20.8671875 C-19.62878906 21.74890625 -20.15601562 22.630625 -20.69921875 23.5390625 C-24.20006841 30.27539129 -24.11516184 38.66521081 -22.35546875 45.9453125 C-19.79820792 52.8637111 -16.26255478 58.22101557 -9.8515625 61.9921875 C-0.09137593 64.87224255 9.13907688 64.95518791 18.2109375 60.0546875 C23.14104723 56.74826661 25.72567034 51.83090735 27.5703125 46.28515625 C29.25604946 36.92931611 28.68740896 27.44700849 23.9609375 19.1171875 C23.62191406 18.51132812 23.28289062 17.90546875 22.93359375 17.28125 C20.08280467 13.12173568 16.52476537 11.75891341 11.83984375 10.5859375 C3.7646794 9.27112105 -5.72742934 8.80474367 -13.0390625 13.1171875 Z " fill="#191919" transform="translate(143.0390625,717.8828125)"/>
<path d="M0 0 C4.96636216 1.86238581 8.81669081 4.66887671 11.69140625 9.18359375 C12.6732773 11.76871318 12.69755211 13.80551989 12.625 16.5625 C12.60695313 17.45453125 12.58890625 18.3465625 12.5703125 19.265625 C12.54710937 19.94109375 12.52390625 20.6165625 12.5 21.3125 C11.84 21.3125 11.18 21.3125 10.5 21.3125 C10.2628125 22.03566406 10.025625 22.75882812 9.78125 23.50390625 C5.82197252 32.18293219 -3.26625414 38.08322098 -11.5 42.3125 C-13.1396875 43.17875 -13.1396875 43.17875 -14.8125 44.0625 C-29.77603939 49.13488624 -51.68903702 50.28570583 -66.1875 43.1875 C-67.280625 42.56875 -68.37375 41.95 -69.5 41.3125 C-68.5 39.3125 -68.5 39.3125 -66.57324219 38.59814453 C-65.73954102 38.38270996 -64.90583984 38.16727539 -64.046875 37.9453125 C-63.12350342 37.70167969 -62.20013184 37.45804687 -61.2487793 37.20703125 C-60.25918213 36.95308594 -59.26958496 36.69914062 -58.25 36.4375 C-56.23017736 35.89953035 -54.21064433 35.36047214 -52.19140625 34.8203125 C-49.57185725 34.12572533 -46.95219304 33.43163214 -44.33154297 32.74121094 C-30.98655126 29.17370335 -21.60278151 22.41785857 -13.4375 11.25 C-5.54182149 0.49480549 -5.54182149 0.49480549 0 0 Z " fill="#376595" transform="translate(371.5,380.6875)"/>
<path d="M0 0 C15.45279679 7.80535429 34.57939218 5.03059168 51.20458984 2.83251953 C54.90145419 2.3589578 58.60716237 1.96341246 62.3125 1.5625 C58.6079392 5.56342567 54.8215499 8.37844475 50.125 11.125 C49.45573486 11.51703613 48.78646973 11.90907227 48.09692383 12.31298828 C28.72461646 23.47289358 3.28478477 25.85678881 -18.6875 22.5625 C-20.37434603 21.94868188 -22.04938044 21.29652079 -23.6875 20.5625 C-24.07182334 14.41332653 -23.86231767 8.98812125 -20.6875 3.5625 C-14.2740721 -3.69867987 -8.19625123 -4.56551515 0 0 Z " fill="#356493" transform="translate(565.6875,382.4375)"/>
<path d="M0 0 C3.3 0 6.6 0 10 0 C10 7.26 10 14.52 10 22 C15.28 22 20.56 22 26 22 C26 24.64 26 27.28 26 30 C25 31 25 31 21.62109375 31.09765625 C20.22652923 31.09098369 18.83198257 31.07902532 17.4375 31.0625 C16.72658203 31.05798828 16.01566406 31.05347656 15.28320312 31.04882812 C13.52209987 31.03700864 11.76103964 31.01907263 10 31 C10.09367004 37.03257915 10.19979496 43.06476339 10.31738281 49.09692383 C10.35562625 51.14829534 10.39048719 53.19973284 10.421875 55.2512207 C10.46762602 58.20287638 10.52560422 61.15407953 10.5859375 64.10546875 C10.59748871 65.02023483 10.60903992 65.93500092 10.62094116 66.87748718 C10.61841777 73.98857829 10.61841777 73.98857829 14 80 C15.82906235 80.20837419 17.66388134 80.36749659 19.5 80.5 C24.88888889 80.88888889 24.88888889 80.88888889 26 82 C26.125 85.5 26.125 85.5 26 89 C23.91321478 91.08678522 19.61669969 90.23104661 16.75 90.25 C15.60337891 90.2809375 15.60337891 90.2809375 14.43359375 90.3125 C9.84346558 90.34421073 6.56614895 90.20172497 3 87 C-0.39763745 80.88507414 -0.39603085 75.49128713 -0.29296875 68.59765625 C-0.28872391 67.51995468 -0.28447906 66.44225311 -0.28010559 65.33189392 C-0.26338719 61.90850254 -0.22574683 58.4857118 -0.1875 55.0625 C-0.17244436 52.73373249 -0.1587575 50.40495571 -0.14648438 48.07617188 C-0.11350593 42.3838851 -0.06177019 36.6920442 0 31 C-3.63 31 -7.26 31 -11 31 C-11 28.03 -11 25.06 -11 22 C-7.37 22 -3.74 22 0 22 C0 14.74 0 7.48 0 0 Z " fill="#191919" transform="translate(268,699)"/>
<path d="M0 0 C1 1 1 1 1.09765625 3.28515625 C1.08605469 4.20167969 1.07445312 5.11820313 1.0625 6.0625 C1.05347656 6.98160156 1.04445313 7.90070312 1.03515625 8.84765625 C1.02355469 9.55792969 1.01195312 10.26820313 1 11 C-1.98942412 11.99647471 -3.65989036 12.01894921 -6.75 11.875 C-12.7653871 11.83115607 -16.69585432 12.88786646 -21.25 17.0625 C-25.48595216 24.17284827 -26.45017652 31.80495894 -26.51171875 39.9453125 C-26.52966995 40.84120087 -26.54762115 41.73708923 -26.56611633 42.66012573 C-26.6196832 45.48170459 -26.65394068 48.3031197 -26.6875 51.125 C-26.72072057 53.05471004 -26.75521451 54.98439861 -26.79101562 56.9140625 C-26.87537783 61.60925569 -26.94244191 66.30440486 -27 71 C-30.3 71 -33.6 71 -37 71 C-37 48.56 -37 26.12 -37 3 C-33.7 3 -30.4 3 -27 3 C-26.67 4.98 -26.34 6.96 -26 9 C-25.278125 8.05125 -24.55625 7.1025 -23.8125 6.125 C-18.08686914 -0.69122722 -8.36297717 -0.6101743 0 0 Z " fill="#191919" transform="translate(412,718)"/>
<path d="M0 0 C3.71573879 1.13575412 7.06683139 2.41191005 10 5 C10.8984375 7.4765625 10.8984375 7.4765625 11 10 C8.4405633 13.72946491 6.20740562 16.31860184 2 18 C-2.88149581 18.59381344 -7.66185953 18.47893741 -12 16 C-14.3125 14 -14.3125 14 -16 12 C-16 11.34 -16 10.68 -16 10 C-16.66 10 -17.32 10 -18 10 C-18.25 6.6875 -18.25 6.6875 -18 3 C-13.34651192 -1.93723735 -6.20595949 -0.71325206 0 0 Z " fill="#F9FAFB" transform="translate(353,207)"/>
<path d="M0 0 C2.421875 1.53125 2.421875 1.53125 4 3 C3.92478893 6.15886495 3.62522327 8.30084288 1.48046875 10.69921875 C-2.38170385 14.05727619 -5.06681705 15.81762425 -10.3125 16.3125 C-15.48835112 15.87386855 -18.39607374 13.60392626 -22 10 C-22.625 7.6875 -22.625 7.6875 -22 5 C-16.3559516 -1.25605364 -7.80436239 -1.15335405 0 0 Z " fill="#F7F8FA" transform="translate(536,203)"/>
<path d="M0 0 C0.66 0.33 1.32 0.66 2 1 C-1.63 4.63 -5.26 8.26 -9 12 C-9.66 11.67 -10.32 11.34 -11 11 C-7.6381774 6.74828319 -4.25171681 3.3618226 0 0 Z " fill="#5078A2" transform="translate(183,89)"/>
</svg>
